<mxfile host="Electron" agent="Mozilla/5.0 (Windows NT 10.0; Win64; x64) AppleWebKit/537.36 (KHTML, like Gecko) draw.io/26.0.16 Chrome/132.0.6834.196 Electron/34.2.0 Safari/537.36" version="26.0.16">
  <diagram name="Page-1" id="8MVhVEvCVlKNY1j3CH9L">
    <mxGraphModel dx="780" dy="496" grid="1" gridSize="10" guides="1" tooltips="1" connect="1" arrows="1" fold="1" page="1" pageScale="1" pageWidth="850" pageHeight="1100" math="0" shadow="0">
      <root>
        <mxCell id="0" />
        <mxCell id="1" parent="0" />
        <mxCell id="CVX9FehLTfT39aEjHm-I-1" value="" style="aspect=fixed;sketch=0;html=1;dashed=0;whitespace=wrap;verticalLabelPosition=bottom;verticalAlign=top;fillColor=#2875E2;strokeColor=#ffffff;points=[[0.005,0.63,0],[0.1,0.2,0],[0.9,0.2,0],[0.5,0,0],[0.995,0.63,0],[0.72,0.99,0],[0.5,1,0],[0.28,0.99,0]];shape=mxgraph.kubernetes.icon2;prIcon=api" vertex="1" parent="1">
          <mxGeometry x="70" y="150" width="83.33" height="80" as="geometry" />
        </mxCell>
        <mxCell id="CVX9FehLTfT39aEjHm-I-2" value="" style="shape=flexArrow;endArrow=classic;html=1;rounded=0;" edge="1" parent="1">
          <mxGeometry width="50" height="50" relative="1" as="geometry">
            <mxPoint x="166.67" y="189.58" as="sourcePoint" />
            <mxPoint x="206.67" y="190.08" as="targetPoint" />
          </mxGeometry>
        </mxCell>
        <mxCell id="CVX9FehLTfT39aEjHm-I-5" value="Amazon S3" style="sketch=0;outlineConnect=0;fontColor=#232F3E;gradientColor=none;strokeColor=#ffffff;fillColor=#232F3E;dashed=0;verticalLabelPosition=middle;verticalAlign=bottom;align=center;html=1;whiteSpace=wrap;fontSize=10;fontStyle=1;spacing=3;shape=mxgraph.aws4.productIcon;prIcon=mxgraph.aws4.s3;" vertex="1" parent="1">
          <mxGeometry x="386.67" y="150" width="80" height="100" as="geometry" />
        </mxCell>
        <mxCell id="CVX9FehLTfT39aEjHm-I-6" value="" style="shape=flexArrow;endArrow=classic;html=1;rounded=0;" edge="1" parent="1">
          <mxGeometry width="50" height="50" relative="1" as="geometry">
            <mxPoint x="326.67" y="189.58" as="sourcePoint" />
            <mxPoint x="366.67" y="190.08" as="targetPoint" />
          </mxGeometry>
        </mxCell>
        <mxCell id="CVX9FehLTfT39aEjHm-I-7" value="Amazon Athena" style="sketch=0;outlineConnect=0;fontColor=#232F3E;gradientColor=none;strokeColor=#ffffff;fillColor=#232F3E;dashed=0;verticalLabelPosition=middle;verticalAlign=bottom;align=center;html=1;whiteSpace=wrap;fontSize=10;fontStyle=1;spacing=3;shape=mxgraph.aws4.productIcon;prIcon=mxgraph.aws4.athena;" vertex="1" parent="1">
          <mxGeometry x="386.67" y="315" width="80" height="110" as="geometry" />
        </mxCell>
        <mxCell id="CVX9FehLTfT39aEjHm-I-8" value="" style="shape=flexArrow;endArrow=classic;html=1;rounded=0;" edge="1" parent="1">
          <mxGeometry width="50" height="50" relative="1" as="geometry">
            <mxPoint x="426.25" y="270" as="sourcePoint" />
            <mxPoint x="426.25" y="300.5" as="targetPoint" />
          </mxGeometry>
        </mxCell>
        <mxCell id="CVX9FehLTfT39aEjHm-I-9" value="AWS Lambda" style="sketch=0;outlineConnect=0;fontColor=#232F3E;gradientColor=none;strokeColor=#ffffff;fillColor=#232F3E;dashed=0;verticalLabelPosition=middle;verticalAlign=bottom;align=center;html=1;whiteSpace=wrap;fontSize=10;fontStyle=1;spacing=3;shape=mxgraph.aws4.productIcon;prIcon=mxgraph.aws4.lambda;" vertex="1" parent="1">
          <mxGeometry x="69.99999999999999" y="315" width="80" height="100" as="geometry" />
        </mxCell>
        <mxCell id="CVX9FehLTfT39aEjHm-I-10" value="Amazon Kinesis Data Firehose" style="sketch=0;outlineConnect=0;fontColor=#232F3E;gradientColor=none;strokeColor=#ffffff;fillColor=#232F3E;dashed=0;verticalLabelPosition=middle;verticalAlign=bottom;align=center;html=1;whiteSpace=wrap;fontSize=10;fontStyle=1;spacing=3;shape=mxgraph.aws4.productIcon;prIcon=mxgraph.aws4.kinesis_data_firehose;" vertex="1" parent="1">
          <mxGeometry x="216.67" y="150" width="80" height="120" as="geometry" />
        </mxCell>
        <mxCell id="CVX9FehLTfT39aEjHm-I-11" value="Amazon Comprehend" style="sketch=0;outlineConnect=0;fontColor=#232F3E;gradientColor=none;strokeColor=#ffffff;fillColor=#232F3E;dashed=0;verticalLabelPosition=middle;verticalAlign=bottom;align=center;html=1;whiteSpace=wrap;fontSize=10;fontStyle=1;spacing=3;shape=mxgraph.aws4.productIcon;prIcon=mxgraph.aws4.comprehend;" vertex="1" parent="1">
          <mxGeometry x="216.67" y="315" width="80" height="110" as="geometry" />
        </mxCell>
        <mxCell id="CVX9FehLTfT39aEjHm-I-12" value="" style="shape=flexArrow;endArrow=classic;html=1;rounded=0;" edge="1" parent="1">
          <mxGeometry width="50" height="50" relative="1" as="geometry">
            <mxPoint x="326.67" y="350" as="sourcePoint" />
            <mxPoint x="366.67" y="350.5" as="targetPoint" />
          </mxGeometry>
        </mxCell>
        <mxCell id="CVX9FehLTfT39aEjHm-I-13" value="" style="shape=flexArrow;endArrow=classic;html=1;rounded=0;" edge="1" parent="1">
          <mxGeometry width="50" height="50" relative="1" as="geometry">
            <mxPoint x="166.67" y="350" as="sourcePoint" />
            <mxPoint x="206.67" y="350.5" as="targetPoint" />
          </mxGeometry>
        </mxCell>
        <mxCell id="CVX9FehLTfT39aEjHm-I-14" value="Amazon QuickSight" style="sketch=0;outlineConnect=0;fontColor=#232F3E;gradientColor=none;strokeColor=#ffffff;fillColor=#232F3E;dashed=0;verticalLabelPosition=middle;verticalAlign=bottom;align=center;html=1;whiteSpace=wrap;fontSize=10;fontStyle=1;spacing=3;shape=mxgraph.aws4.productIcon;prIcon=mxgraph.aws4.quicksight;" vertex="1" parent="1">
          <mxGeometry x="560" y="315" width="80" height="110" as="geometry" />
        </mxCell>
        <mxCell id="CVX9FehLTfT39aEjHm-I-16" value="" style="shape=flexArrow;endArrow=classic;html=1;rounded=0;" edge="1" parent="1">
          <mxGeometry width="50" height="50" relative="1" as="geometry">
            <mxPoint x="490" y="350" as="sourcePoint" />
            <mxPoint x="530" y="350.5" as="targetPoint" />
          </mxGeometry>
        </mxCell>
        <mxCell id="CVX9FehLTfT39aEjHm-I-17" value="&lt;b&gt;&lt;font style=&quot;font-size: 11px;&quot;&gt;Twitte API&lt;/font&gt;&lt;/b&gt;" style="text;html=1;align=center;verticalAlign=middle;resizable=0;points=[];autosize=1;strokeColor=none;fillColor=none;" vertex="1" parent="1">
          <mxGeometry x="73.33" y="230" width="80" height="30" as="geometry" />
        </mxCell>
      </root>
    </mxGraphModel>
  </diagram>
</mxfile>
